<svg width="283" height="296" viewBox="0 0 283 296" fill="none" xmlns="http://www.w3.org/2000/svg">
<path d="M48.2683 124.728L46.7511 121.063C46.5001 121.167 46.2605 121.296 46.0359 121.449L48.2683 124.728ZM101.532 205.923L99.6929 209.437C101.171 210.21 102.974 209.977 104.206 208.853L101.532 205.923ZM4 154.868L1.76765 151.589C0.615465 152.374 -0.040401 153.705 0.0400645 155.097C0.12053 156.489 0.925517 157.736 2.16045 158.382L4 154.868ZM234.253 124.728L236.486 121.449C236.238 121.28 235.972 121.14 235.692 121.031L234.253 124.728ZM181.031 205.923L178.357 208.853C179.589 209.977 181.394 210.211 182.871 209.437L181.031 205.923ZM278.522 154.868L280.362 158.382C281.597 157.735 282.401 156.488 282.482 155.097C282.562 153.705 281.906 152.374 280.754 151.589L278.522 154.868ZM137.315 276.807C137.315 278.997 139.091 280.773 141.282 280.773C143.472 280.773 145.248 278.997 145.248 276.807H137.315ZM145.248 186.636C145.248 184.446 143.472 182.67 141.282 182.67C139.091 182.67 137.315 184.446 137.315 186.636H145.248ZM52.988 181.209C52.988 179.019 51.2121 177.243 49.0214 177.243C46.8307 177.243 45.0548 179.019 45.0548 181.209H52.988ZM49.0214 245.581H45.0548V248.049L47.2695 249.14L49.0214 245.581ZM141.282 291L139.53 294.559L141.282 295.421L143.034 294.558L141.282 291ZM237.467 180.082C237.467 177.892 235.691 176.116 233.5 176.116C231.31 176.116 229.534 177.892 229.534 180.082H237.467ZM233.5 245.581L235.253 249.139L237.467 248.049V245.581H233.5ZM89.6185 111.903C91.6426 111.065 92.6041 108.745 91.7662 106.721C90.9283 104.697 88.6082 103.736 86.5842 104.573L89.6185 111.903ZM193.976 104.793C191.935 103.998 189.636 105.009 188.841 107.05C188.047 109.091 189.057 111.391 191.099 112.185L193.976 104.793ZM159.874 146.522C160.336 148.663 162.448 150.024 164.589 149.561C166.73 149.098 168.09 146.987 167.628 144.846L159.874 146.522ZM194.749 74.5995C196.552 73.3548 197.004 70.8844 195.76 69.0817C194.515 67.279 192.045 66.8266 190.242 68.0714L194.749 74.5995ZM85.3925 49.6459C83.535 48.4845 81.0877 49.0488 79.9263 50.9063C78.7649 52.7637 79.3292 55.211 81.1866 56.3724L85.3925 49.6459ZM119.036 143.773C118.926 145.961 120.61 147.824 122.798 147.934C124.986 148.044 126.849 146.359 126.959 144.172L119.036 143.773ZM137.386 146.432C137.799 148.583 139.878 149.992 142.029 149.58C144.181 149.167 145.59 147.088 145.177 144.937L137.386 146.432ZM148.042 109.758C148.881 107.734 147.921 105.414 145.898 104.574C143.874 103.735 141.553 104.695 140.714 106.719L148.042 109.758ZM62.4191 61.4417C62.4191 63.6324 64.1949 65.4083 66.3856 65.4083C68.5763 65.4083 70.3522 63.6324 70.3522 61.4417H62.4191ZM37.5987 28.7543C35.408 28.7543 33.6321 30.5302 33.6321 32.7209C33.6321 34.9115 35.408 36.6874 37.5987 36.6874V28.7543ZM70.3522 4C70.3522 1.80933 68.5763 0.0334499 66.3856 0.0334499C64.1949 0.0334499 62.4191 1.80933 62.4191 4H70.3522ZM95.1725 36.6874C97.3632 36.6874 99.1391 34.9115 99.1391 32.7209C99.1391 30.5302 97.3632 28.7543 95.1725 28.7543V36.6874ZM140.412 95.8817C140.412 98.0724 142.187 99.8483 144.378 99.8483C146.569 99.8483 148.345 98.0724 148.345 95.8817H140.412ZM129.399 76.9703C127.208 76.9703 125.432 78.7462 125.432 80.9369C125.432 83.1275 127.208 84.9034 129.399 84.9034V76.9703ZM148.345 65.992C148.345 63.8013 146.569 62.0254 144.378 62.0254C142.187 62.0254 140.412 63.8013 140.412 65.992H148.345ZM159.357 84.9034C161.548 84.9034 163.324 83.1275 163.324 80.9369C163.324 78.7462 161.548 76.9703 159.357 76.9703V84.9034ZM122.029 30.5365C121.054 28.5752 118.673 27.7763 116.711 28.7521C114.75 29.728 113.951 32.109 114.927 34.0703L122.029 30.5365ZM117.814 39.873C118.79 41.8343 121.171 42.6332 123.132 41.6573C125.093 40.6815 125.892 38.3004 124.917 36.3391L117.814 39.873ZM128.599 43.6863C127.623 41.725 125.242 40.9261 123.28 41.902C121.319 42.8778 120.52 45.2588 121.496 47.2202L128.599 43.6863ZM124.383 53.0228C125.359 54.9841 127.74 55.783 129.701 54.8071C131.663 53.8313 132.461 51.4503 131.486 49.4889L124.383 53.0228ZM111.948 42.9424C109.985 43.9146 109.182 46.2942 110.154 48.2573C111.126 50.2204 113.506 51.0236 115.469 50.0514L111.948 42.9424ZM121.285 47.1709C123.248 46.1987 124.051 43.8191 123.079 41.856C122.106 39.8929 119.727 39.0897 117.764 40.0619L121.285 47.1709ZM125.128 36.3883C123.165 37.3606 122.362 39.7402 123.334 41.7033C124.306 43.6663 126.686 44.4696 128.649 43.4973L125.128 36.3883ZM134.465 40.6169C136.428 39.6446 137.231 37.2651 136.259 35.302C135.287 33.3389 132.907 32.5357 130.944 33.5079L134.465 40.6169ZM89.3865 79.9179C90.0226 77.8216 88.8389 75.6066 86.7426 74.9705C84.6463 74.3344 82.4313 75.5181 81.7952 77.6143L89.3865 79.9179ZM80.4144 82.1646C79.7783 84.2609 80.962 86.4759 83.0583 87.112C85.1545 87.7481 87.3696 86.5644 88.0057 84.4681L80.4144 82.1646ZM86.2065 90.229C86.8426 88.1327 85.6589 85.9177 83.5627 85.2816C81.4664 84.6455 79.2513 85.8292 78.6152 87.9255L86.2065 90.229ZM77.2345 92.4757C76.5984 94.572 77.782 96.787 79.8783 97.4231C81.9746 98.0592 84.1896 96.8755 84.8258 94.7793L77.2345 92.4757ZM76.9887 80.1454C74.8916 79.512 72.6781 80.6985 72.0447 82.7956C71.4112 84.8927 72.5977 87.1062 74.6948 87.7397L76.9887 80.1454ZM79.2555 89.1173C81.3526 89.7507 83.5662 88.5642 84.1996 86.4671C84.833 84.37 83.6465 82.1565 81.5494 81.523L79.2555 89.1173ZM87.3654 83.2763C85.2683 82.6429 83.0548 83.8294 82.4213 85.9265C81.7879 88.0236 82.9744 90.2371 85.0715 90.8706L87.3654 83.2763ZM89.6322 92.2482C91.7293 92.8816 93.9428 91.6951 94.5763 89.598C95.2097 87.5009 94.0232 85.2874 91.9261 84.6539L89.6322 92.2482ZM181.747 20.4355C182.801 18.515 182.098 16.1038 180.178 15.05C178.257 13.9962 175.846 14.6988 174.792 16.6193L181.747 20.4355ZM171.654 22.3385C170.6 24.259 171.303 26.6702 173.223 27.724C175.144 28.7778 177.555 28.0752 178.609 26.1546L171.654 22.3385ZM174.67 33.3874C175.73 31.4701 175.035 29.0567 173.117 27.997C171.2 26.9372 168.787 27.6324 167.727 29.5497L174.67 33.3874ZM164.589 35.227C163.529 37.1443 164.224 39.5577 166.141 40.6174C168.059 41.6772 170.472 40.982 171.532 39.0647L164.589 35.227ZM165.746 19.2685C163.827 18.2124 161.415 18.9123 160.359 20.8316C159.303 22.7509 160.003 25.1629 161.922 26.219L165.746 19.2685ZM167.613 29.3499C169.532 30.4059 171.944 29.7061 173 27.7867C174.056 25.8674 173.356 23.4554 171.437 22.3994L167.613 29.3499ZM178.665 26.3176C176.742 25.2675 174.332 25.9747 173.282 27.8973C172.232 29.8199 172.939 32.2297 174.862 33.2798L178.665 26.3176ZM180.594 36.4107C182.517 37.4608 184.927 36.7535 185.977 34.831C187.027 32.9084 186.32 30.4986 184.397 29.4485L180.594 36.4107ZM187.759 107.696C187.759 105.505 185.983 103.729 183.793 103.729C181.602 103.729 179.826 105.505 179.826 107.696H187.759ZM179.826 113.164C179.826 115.355 181.602 117.131 183.793 117.131C185.983 117.131 187.759 115.355 187.759 113.164H179.826ZM187.759 120.094C187.759 117.903 185.983 116.128 183.793 116.128C181.602 116.128 179.826 117.903 179.826 120.094H187.759ZM179.826 125.563C179.826 127.753 181.602 129.529 183.793 129.529C185.983 129.529 187.759 127.753 187.759 125.563H179.826ZM174.839 112.663C172.648 112.663 170.872 114.439 170.872 116.629C170.872 118.82 172.648 120.596 174.839 120.596V112.663ZM180.32 120.596C182.511 120.596 184.286 118.82 184.286 116.629C184.286 114.439 182.511 112.663 180.32 112.663V120.596ZM187.266 112.663C185.075 112.663 183.299 114.439 183.299 116.629C183.299 118.82 185.075 120.596 187.266 120.596V112.663ZM192.747 120.596C194.937 120.596 196.713 118.82 196.713 116.629C196.713 114.439 194.937 112.663 192.747 112.663V120.596ZM46.5433 128.3L139.557 173.218L143.007 166.074L49.9932 121.156L46.5433 128.3ZM138.608 166.716L98.8585 202.993L104.206 208.853L143.956 172.576L138.608 166.716ZM103.372 202.409L5.83955 151.354L2.16045 158.382L99.6929 209.437L103.372 202.409ZM6.23235 158.147L50.5006 128.007L46.0359 121.449L1.76765 151.589L6.23235 158.147ZM232.528 121.156L139.556 166.074L143.007 173.218L235.979 128.299L232.528 121.156ZM138.608 172.576L178.357 208.853L183.705 202.993L143.956 166.716L138.608 172.576ZM182.871 209.437L280.362 158.382L276.682 151.354L179.191 202.409L182.871 209.437ZM280.754 151.589L236.486 121.449L232.021 128.007L276.289 158.147L280.754 151.589ZM145.248 276.807V186.636H137.315V276.807H145.248ZM45.0548 181.209V245.581H52.988V181.209H45.0548ZM47.2695 249.14L139.53 294.559L143.034 287.441L50.7733 242.022L47.2695 249.14ZM229.534 180.082V245.581H237.467V180.082H229.534ZM231.748 242.023L139.529 287.442L143.034 294.558L235.253 249.139L231.748 242.023ZM49.7854 128.393L89.6185 111.903L86.5842 104.573L46.7511 121.063L49.7854 128.393ZM235.692 121.031L193.976 104.793L191.099 112.185L232.815 128.424L235.692 121.031ZM163.751 145.684C167.628 144.846 167.628 144.848 167.628 144.849C167.628 144.849 167.629 144.85 167.629 144.851C167.629 144.852 167.629 144.852 167.629 144.851C167.629 144.85 167.628 144.846 167.626 144.839C167.623 144.826 167.618 144.801 167.611 144.765C167.597 144.694 167.574 144.579 167.545 144.422C167.487 144.109 167.403 143.63 167.308 143C167.118 141.741 166.882 139.887 166.714 137.568C166.379 132.921 166.32 126.456 167.421 119.203C169.62 104.722 176.401 87.2689 194.749 74.5995L190.242 68.0714C169.595 82.3277 162.002 102.049 159.578 118.011C158.368 125.979 158.434 133.053 158.802 138.139C158.986 140.687 159.247 142.748 159.464 144.187C159.573 144.907 159.672 145.473 159.745 145.867C159.781 146.065 159.812 146.219 159.834 146.329C159.845 146.384 159.854 146.428 159.86 146.46C159.864 146.476 159.867 146.489 159.869 146.5C159.87 146.505 159.871 146.509 159.872 146.513C159.872 146.515 159.873 146.517 159.873 146.518C159.873 146.52 159.874 146.522 163.751 145.684ZM83.2895 53.0092C81.1866 56.3724 81.185 56.3714 81.1835 56.3704C81.1832 56.3702 81.1819 56.3694 81.1813 56.3691C81.1802 56.3683 81.1797 56.368 81.1798 56.3681C81.1801 56.3683 81.183 56.3701 81.1884 56.3736C81.1992 56.3804 81.22 56.3938 81.2505 56.4136C81.3116 56.4534 81.4116 56.5191 81.5478 56.6113C81.8201 56.7956 82.2369 57.0852 82.7769 57.4825C83.857 58.2774 85.4276 59.5019 87.3177 61.1751C91.1 64.5236 96.1462 69.6553 101.104 76.7233C110.991 90.818 120.597 112.701 119.036 143.773L126.959 144.172C128.619 111.123 118.371 87.5243 107.599 72.1676C102.227 64.5099 96.7424 58.9235 92.5762 55.2352C90.492 53.3901 88.7338 52.0166 87.4789 51.0931C86.8512 50.6312 86.3489 50.2815 85.994 50.0413C85.8165 49.9212 85.6758 49.8284 85.5747 49.7626C85.5241 49.7297 85.4834 49.7036 85.4529 49.6842C85.4377 49.6745 85.425 49.6664 85.4149 49.66C85.4098 49.6569 85.4054 49.6541 85.4017 49.6517C85.3998 49.6506 85.3975 49.6491 85.3966 49.6485C85.3944 49.6472 85.3925 49.6459 83.2895 53.0092ZM141.282 145.684C145.177 144.937 145.177 144.937 145.178 144.938C145.178 144.938 145.178 144.939 145.178 144.939C145.178 144.94 145.178 144.94 145.178 144.94C145.178 144.94 145.178 144.939 145.177 144.937C145.176 144.932 145.175 144.922 145.172 144.907C145.166 144.878 145.158 144.83 145.146 144.764C145.123 144.631 145.088 144.425 145.044 144.151C144.958 143.604 144.839 142.788 144.716 141.75C144.47 139.672 144.21 136.719 144.16 133.26C144.059 126.279 144.82 117.527 148.042 109.758L140.714 106.719C136.907 115.898 136.119 125.869 136.228 133.374C136.282 137.158 136.566 140.389 136.838 142.683C136.974 143.832 137.107 144.75 137.209 145.389C137.259 145.71 137.302 145.96 137.333 146.136C137.348 146.224 137.36 146.293 137.37 146.342C137.374 146.367 137.378 146.387 137.381 146.402C137.382 146.409 137.383 146.415 137.384 146.42C137.385 146.423 137.385 146.425 137.385 146.427C137.386 146.428 137.386 146.429 137.386 146.429C137.386 146.431 137.386 146.432 141.282 145.684ZM70.3522 61.4417C70.3522 53.6545 65.4895 45.5205 59.5165 39.5613C53.5422 33.6006 45.3936 28.7543 37.5987 28.7543V36.6874C42.3981 36.6874 48.6429 39.9189 53.9134 45.1773C59.1854 50.4371 62.4191 56.6636 62.4191 61.4417H70.3522ZM37.5987 36.6874C45.3936 36.6874 53.5422 31.8411 59.5165 25.8804C65.4895 19.9212 70.3522 11.7873 70.3522 4H62.4191C62.4191 8.77811 59.1854 15.0046 53.9134 20.2645C48.6429 25.5229 42.3981 28.7543 37.5987 28.7543V36.6874ZM62.4191 4C62.4191 11.7873 67.2817 19.9212 73.2547 25.8804C79.229 31.8411 87.3776 36.6874 95.1725 36.6874V28.7543C90.3731 28.7543 84.1283 25.5229 78.8578 20.2645C73.5858 15.0046 70.3522 8.77811 70.3522 4H62.4191ZM95.1725 28.7543C87.3776 28.7543 79.229 33.6006 73.2547 39.5613C67.2817 45.5205 62.4191 53.6545 62.4191 61.4417H70.3522C70.3522 56.6636 73.5858 50.4371 78.8578 45.1773C84.1283 39.9189 90.3731 36.6874 95.1725 36.6874V28.7543ZM234.722 55.1382C234.722 68.801 223.618 79.8925 209.902 79.8925V87.8256C227.982 87.8256 242.655 73.1995 242.655 55.1382H234.722ZM209.902 79.8925C196.185 79.8925 185.081 68.801 185.081 55.1382H177.148C177.148 73.1995 191.821 87.8256 209.902 87.8256V79.8925ZM185.081 55.1382C185.081 41.4753 196.185 30.3839 209.902 30.3839V22.4508C191.821 22.4508 177.148 37.0768 177.148 55.1382H185.081ZM209.902 30.3839C223.618 30.3839 234.722 41.4753 234.722 55.1382H242.655C242.655 37.0768 227.982 22.4508 209.902 22.4508V30.3839ZM148.345 95.8817C148.345 91.1216 145.428 86.4322 142.156 83.1617C138.881 79.8888 134.184 76.9703 129.399 76.9703V84.9034C131.183 84.9034 133.975 86.2013 136.548 88.7727C139.123 91.3466 140.412 94.1296 140.412 95.8817H148.345ZM129.399 84.9034C134.16 84.9034 138.856 81.9988 142.135 78.7327C145.414 75.467 148.345 70.7764 148.345 65.992H140.412C140.412 67.7616 139.116 70.5434 136.537 73.1117C133.959 75.6796 131.165 76.9703 129.399 76.9703V84.9034ZM140.412 65.992C140.412 70.7521 143.328 75.4415 146.6 78.712C149.875 81.985 154.572 84.9034 159.357 84.9034V76.9703C157.573 76.9703 154.781 75.6725 152.208 73.1011C149.633 70.5272 148.345 67.7442 148.345 65.992H140.412ZM159.357 76.9703C154.578 76.9703 149.882 79.8719 146.603 83.1436C143.325 86.4138 140.412 91.1035 140.412 95.8817H148.345C148.345 94.106 149.636 91.3232 152.206 88.7595C154.774 86.1973 157.567 84.9034 159.357 84.9034V76.9703ZM114.927 34.0703L117.814 39.873L124.917 36.3391L122.029 30.5365L114.927 34.0703ZM121.496 47.2202L124.383 53.0228L131.486 49.4889L128.599 43.6863L121.496 47.2202ZM115.469 50.0514L121.285 47.1709L117.764 40.0619L111.948 42.9424L115.469 50.0514ZM128.649 43.4973L134.465 40.6169L130.944 33.5079L125.128 36.3883L128.649 43.4973ZM81.7952 77.6143L80.4144 82.1646L88.0057 84.4681L89.3865 79.9179L81.7952 77.6143ZM78.6152 87.9255L77.2345 92.4757L84.8258 94.7793L86.2065 90.229L78.6152 87.9255ZM74.6948 87.7397L79.2555 89.1173L81.5494 81.523L76.9887 80.1454L74.6948 87.7397ZM85.0715 90.8706L89.6322 92.2482L91.9261 84.6539L87.3654 83.2763L85.0715 90.8706ZM174.792 16.6193L171.654 22.3385L178.609 26.1546L181.747 20.4355L174.792 16.6193ZM167.727 29.5497L164.589 35.227L171.532 39.0647L174.67 33.3874L167.727 29.5497ZM161.922 26.219L167.613 29.3499L171.437 22.3994L165.746 19.2685L161.922 26.219ZM174.862 33.2798L180.594 36.4107L184.397 29.4485L178.665 26.3176L174.862 33.2798ZM179.826 107.696V113.164H187.759V107.696H179.826ZM179.826 120.094V125.563H187.759V120.094H179.826ZM174.839 120.596H180.32V112.663H174.839V120.596ZM187.266 120.596H192.747V112.663H187.266V120.596Z" fill="black"/>
</svg>
